<svg width="133" height="28" viewBox="0 0 133 28" fill="none" xmlns="http://www.w3.org/2000/svg">
<path d="M43.34 21H40.9V15.1L36 6.6H38.81L42.12 12.34L45.42 6.6H48.23L43.34 15.1V21ZM52.795 21.3C51.7283 21.3 50.7883 21.06 49.975 20.58C49.1617 20.0933 48.5317 19.42 48.085 18.56C47.645 17.6933 47.425 16.7067 47.425 15.6C47.425 14.48 47.6483 13.49 48.095 12.63C48.5483 11.7633 49.1817 11.0933 49.995 10.62C50.8083 10.14 51.7417 9.9 52.795 9.9C53.8683 9.9 54.8117 10.1433 55.625 10.63C56.4383 11.11 57.0683 11.7833 57.515 12.65C57.9617 13.51 58.185 14.4933 58.185 15.6C58.185 16.7133 57.9583 17.7033 57.505 18.57C57.0583 19.43 56.425 20.1 55.605 20.58C54.7917 21.06 53.855 21.3 52.795 21.3ZM52.795 19.04C53.7217 19.04 54.425 18.73 54.905 18.11C55.3917 17.49 55.635 16.6533 55.635 15.6C55.635 14.5333 55.3917 13.6933 54.905 13.08C54.425 12.4667 53.7217 12.16 52.795 12.16C51.855 12.16 51.1483 12.47 50.675 13.09C50.2083 13.7033 49.975 14.54 49.975 15.6C49.975 16.6733 50.215 17.5167 50.695 18.13C51.1817 18.7367 51.8817 19.04 52.795 19.04ZM67.6783 10.2H70.0983V21H67.9683V19.8C67.5616 20.28 67.0616 20.6533 66.4683 20.92C65.8749 21.18 65.1983 21.31 64.4383 21.31C63.2316 21.31 62.3149 21.0067 61.6883 20.4C61.0616 19.7867 60.6549 19.1067 60.4683 18.36C60.2816 17.6133 60.1883 16.9033 60.1883 16.23V10.2H62.6283V15.4C62.6283 17.8267 63.4683 19.04 65.1483 19.04C65.8749 19.04 66.4783 18.7933 66.9583 18.3C67.4383 17.8 67.6783 16.95 67.6783 15.75V10.2ZM76.1178 10.77C76.4178 10.5633 76.7578 10.41 77.1378 10.31C77.5178 10.2033 77.9078 10.15 78.3078 10.15C78.5145 10.15 78.7411 10.1667 78.9878 10.2V12.45C78.7345 12.3833 78.4745 12.35 78.2078 12.35C77.6545 12.35 77.1711 12.47 76.7578 12.71C76.2778 12.97 75.9178 13.34 75.6778 13.82C75.4445 14.3 75.3278 14.8633 75.3278 15.51V21H72.9078V10.2H75.0378V11.93C75.3311 11.4233 75.6911 11.0367 76.1178 10.77ZM93.87 21H85.1V6.6H87.51V18.74H93.87V21ZM100.334 21.3C99.2674 21.3 98.3274 21.06 97.5141 20.58C96.7007 20.0933 96.0707 19.42 95.6241 18.56C95.1841 17.6933 94.9641 16.7067 94.9641 15.6C94.9641 14.48 95.1874 13.49 95.6341 12.63C96.0874 11.7633 96.7207 11.0933 97.5341 10.62C98.3474 10.14 99.2807 9.9 100.334 9.9C101.407 9.9 102.351 10.1433 103.164 10.63C103.977 11.11 104.607 11.7833 105.054 12.65C105.501 13.51 105.724 14.4933 105.724 15.6C105.724 16.7133 105.497 17.7033 105.044 18.57C104.597 19.43 103.964 20.1 103.144 20.58C102.331 21.06 101.394 21.3 100.334 21.3ZM100.334 19.04C101.261 19.04 101.964 18.73 102.444 18.11C102.931 17.49 103.174 16.6533 103.174 15.6C103.174 14.5333 102.931 13.6933 102.444 13.08C101.964 12.4667 101.261 12.16 100.334 12.16C99.3941 12.16 98.6874 12.47 98.2141 13.09C97.7474 13.7033 97.5141 14.54 97.5141 15.6C97.5141 16.6733 97.7541 17.5167 98.2341 18.13C98.7207 18.7367 99.4207 19.04 100.334 19.04ZM115.337 10.2H117.447V21.52C117.447 22.1 117.397 22.6067 117.297 23.04C117.057 24.0533 116.507 24.8167 115.647 25.33C114.794 25.8433 113.734 26.1 112.467 26.1C111.561 26.1 110.724 25.89 109.957 25.47C109.191 25.0567 108.597 24.4833 108.177 23.75L110.397 22.65C110.591 23.0233 110.874 23.31 111.247 23.51C111.621 23.71 112.031 23.81 112.477 23.81C113.257 23.81 113.881 23.6067 114.347 23.2C114.821 22.8 115.051 22.2267 115.037 21.48V20.45C114.271 21.0167 113.344 21.3 112.257 21.3C111.284 21.3 110.421 21.0533 109.667 20.56C108.921 20.06 108.344 19.38 107.937 18.52C107.531 17.6533 107.327 16.68 107.327 15.6C107.327 14.5067 107.534 13.53 107.947 12.67C108.361 11.8033 108.947 11.1267 109.707 10.64C110.467 10.1467 111.347 9.9 112.347 9.9C113.547 9.9 114.544 10.26 115.337 10.98V10.2ZM112.627 19.14C113.554 19.14 114.237 18.8267 114.677 18.2C115.117 17.5667 115.337 16.7 115.337 15.6C115.337 14.5 115.121 13.6367 114.687 13.01C114.254 12.3767 113.594 12.06 112.707 12.06C112.081 12.06 111.554 12.2167 111.127 12.53C110.707 12.8367 110.394 13.2567 110.187 13.79C109.981 14.3233 109.877 14.9267 109.877 15.6C109.877 16.28 109.977 16.8867 110.177 17.42C110.384 17.9533 110.691 18.3733 111.097 18.68C111.511 18.9867 112.021 19.14 112.627 19.14ZM125.022 21.3C123.955 21.3 123.015 21.06 122.202 20.58C121.388 20.0933 120.758 19.42 120.312 18.56C119.872 17.6933 119.652 16.7067 119.652 15.6C119.652 14.48 119.875 13.49 120.322 12.63C120.775 11.7633 121.408 11.0933 122.222 10.62C123.035 10.14 123.968 9.9 125.022 9.9C126.095 9.9 127.038 10.1433 127.852 10.63C128.665 11.11 129.295 11.7833 129.742 12.65C130.188 13.51 130.412 14.4933 130.412 15.6C130.412 16.7133 130.185 17.7033 129.732 18.57C129.285 19.43 128.652 20.1 127.832 20.58C127.018 21.06 126.082 21.3 125.022 21.3ZM125.022 19.04C125.948 19.04 126.652 18.73 127.132 18.11C127.618 17.49 127.862 16.6533 127.862 15.6C127.862 14.5333 127.618 13.6933 127.132 13.08C126.652 12.4667 125.948 12.16 125.022 12.16C124.082 12.16 123.375 12.47 122.902 13.09C122.435 13.7033 122.202 14.54 122.202 15.6C122.202 16.6733 122.442 17.5167 122.922 18.13C123.408 18.7367 124.108 19.04 125.022 19.04Z" fill="#1B1D21"/>
<path fill-rule="evenodd" clip-rule="evenodd" d="M12.8852 12.6432L13.855 9.05205C13.8563 9.02546 13.8605 8.99909 13.8673 8.97335L14.864 5.28288C14.8906 5.18499 14.9552 5.10156 15.0438 5.05097C15.1323 5.00038 15.2375 4.98678 15.3362 5.01317L19.7999 6.19977C20.0054 6.25423 20.1274 6.46357 20.0726 6.66738L19.0759 10.3578C19.0495 10.4559 18.9849 10.5395 18.8963 10.5902C18.8077 10.641 18.7025 10.6547 18.6037 10.6283L14.8918 9.64115L14.066 12.699C18.0714 13.178 21.1756 16.5613 21.1756 20.6636C21.1756 20.8746 21.0032 21.0457 20.7905 21.0457H5.38513C5.17243 21.0457 5 20.8746 5 20.6636C5 16.3008 8.51242 12.7502 12.8852 12.6432ZM15.7837 18.7535C16.6345 18.7535 17.3243 18.0693 17.3243 17.2253C17.3243 16.3813 16.6345 15.6972 15.7837 15.6972C14.9329 15.6972 14.2432 16.3813 14.2432 17.2253C14.2432 18.0693 14.9329 18.7535 15.7837 18.7535ZM9.6216 19.1355C9.6216 19.7685 9.10431 20.2816 8.4662 20.2816C7.82809 20.2816 7.3108 19.7685 7.3108 19.1355C7.3108 18.5025 7.82809 17.9894 8.4662 17.9894C9.10431 17.9894 9.6216 18.5025 9.6216 19.1355ZM11.3333 15.867C11.7587 15.867 12.1036 15.5249 12.1036 15.1029C12.1036 14.6809 11.7587 14.3388 11.3333 14.3388C10.9079 14.3388 10.563 14.6809 10.563 15.1029C10.563 15.5249 10.9079 15.867 11.3333 15.867ZM21.4344 9.00697L20.3183 8.71051V8.70974L19.8199 10.555C19.7408 10.8489 19.5472 11.0996 19.2816 11.2518C19.0161 11.404 18.7004 11.4453 18.4042 11.3664L15.8007 10.6734L15.5018 11.7813C15.4469 11.9849 15.5686 12.1941 15.7737 12.2489L20.2382 13.4355C20.4434 13.49 20.6543 13.3693 20.7096 13.1658L21.7063 9.47534C21.7329 9.37747 21.7192 9.27311 21.6682 9.18527C21.6172 9.09742 21.5331 9.03328 21.4344 9.00697Z" fill="#1B1D21"/>
</svg>
