<svg width="124" height="30" viewBox="0 0 124 30" fill="none" xmlns="http://www.w3.org/2000/svg">
<path d="M44.291 21H42.383V15.645L38 8.04H40.196L43.337 13.485L46.478 8.04H48.674L44.291 15.645V21ZM52.7095 21.27C51.7555 21.27 50.9185 21.054 50.1985 20.622C49.4785 20.184 48.9235 19.578 48.5335 18.804C48.1435 18.024 47.9485 17.133 47.9485 16.131C47.9485 15.123 48.1465 14.232 48.5425 13.458C48.9385 12.684 49.4965 12.084 50.2165 11.658C50.9365 11.226 51.7675 11.01 52.7095 11.01C53.6635 11.01 54.5005 11.226 55.2205 11.658C55.9465 12.09 56.5045 12.696 56.8945 13.476C57.2845 14.25 57.4795 15.135 57.4795 16.131C57.4795 17.139 57.2815 18.033 56.8855 18.813C56.4955 19.587 55.9405 20.19 55.2205 20.622C54.5005 21.054 53.6635 21.27 52.7095 21.27ZM52.7095 19.497C53.6095 19.497 54.2965 19.194 54.7705 18.588C55.2445 17.976 55.4815 17.157 55.4815 16.131C55.4815 15.093 55.2445 14.277 54.7705 13.683C54.2965 13.083 53.6095 12.783 52.7095 12.783C51.7975 12.783 51.1075 13.083 50.6395 13.683C50.1775 14.283 49.9465 15.099 49.9465 16.131C49.9465 17.175 50.1835 17.997 50.6575 18.597C51.1315 19.197 51.8155 19.497 52.7095 19.497ZM66.1083 11.28H68.0073V21H66.3333V19.839C65.9673 20.295 65.5143 20.646 64.9743 20.892C64.4343 21.138 63.8163 21.261 63.1203 21.261C62.1003 21.261 61.3023 21.006 60.7263 20.496C60.1563 19.98 59.7723 19.38 59.5743 18.696C59.3763 18.012 59.2773 17.34 59.2773 16.68V11.28H61.1853V16.059C61.1853 17.013 61.3623 17.823 61.7163 18.489C62.0703 19.149 62.7123 19.479 63.6423 19.479C64.3803 19.479 64.9743 19.227 65.4243 18.723C65.8803 18.219 66.1083 17.424 66.1083 16.338V11.28ZM73.1055 11.829C73.3755 11.625 73.6875 11.472 74.0415 11.37C74.3955 11.268 74.7555 11.217 75.1215 11.217C75.3195 11.217 75.5385 11.238 75.7785 11.28V13.044C75.5745 12.984 75.3375 12.954 75.0675 12.954C74.8155 12.954 74.5665 12.987 74.3205 13.053C74.0805 13.113 73.8585 13.209 73.6545 13.341C72.8385 13.863 72.4305 14.781 72.4305 16.095V21H70.5315V11.28H72.2055V12.828C72.4455 12.402 72.7455 12.069 73.1055 11.829ZM89.0249 21H81.2759V8.04H83.1569V19.227H89.0249V21ZM94.774 21.27C93.82 21.27 92.983 21.054 92.263 20.622C91.543 20.184 90.988 19.578 90.598 18.804C90.208 18.024 90.013 17.133 90.013 16.131C90.013 15.123 90.211 14.232 90.607 13.458C91.003 12.684 91.561 12.084 92.281 11.658C93.001 11.226 93.832 11.01 94.774 11.01C95.728 11.01 96.565 11.226 97.285 11.658C98.011 12.09 98.569 12.696 98.959 13.476C99.349 14.25 99.544 15.135 99.544 16.131C99.544 17.139 99.346 18.033 98.95 18.813C98.56 19.587 98.005 20.19 97.285 20.622C96.565 21.054 95.728 21.27 94.774 21.27ZM94.774 19.497C95.674 19.497 96.361 19.194 96.835 18.588C97.309 17.976 97.546 17.157 97.546 16.131C97.546 15.093 97.309 14.277 96.835 13.683C96.361 13.083 95.674 12.783 94.774 12.783C93.862 12.783 93.172 13.083 92.704 13.683C92.242 14.283 92.011 15.099 92.011 16.131C92.011 17.175 92.248 17.997 92.722 18.597C93.196 19.197 93.88 19.497 94.774 19.497ZM108.281 11.28H109.946V21.261C109.946 21.831 109.904 22.311 109.82 22.701C109.622 23.661 109.148 24.381 108.398 24.861C107.648 25.347 106.691 25.59 105.527 25.59C104.723 25.59 103.976 25.404 103.286 25.032C102.602 24.666 102.065 24.144 101.675 23.466L103.412 22.584C103.616 22.98 103.907 23.277 104.285 23.475C104.669 23.679 105.089 23.781 105.545 23.781C106.355 23.781 106.979 23.565 107.417 23.133C107.855 22.701 108.068 22.071 108.056 21.243V20.325C107.342 20.955 106.451 21.27 105.383 21.27C104.501 21.27 103.727 21.048 103.061 20.604C102.395 20.154 101.882 19.539 101.522 18.759C101.162 17.979 100.982 17.103 100.982 16.131C100.982 15.153 101.162 14.277 101.522 13.503C101.888 12.723 102.404 12.114 103.07 11.676C103.742 11.232 104.525 11.01 105.419 11.01C106.013 11.01 106.55 11.109 107.03 11.307C107.51 11.505 107.927 11.787 108.281 12.153V11.28ZM105.644 19.569C106.532 19.569 107.192 19.263 107.624 18.651C108.062 18.033 108.281 17.193 108.281 16.131C108.281 15.081 108.065 14.25 107.633 13.638C107.207 13.02 106.565 12.711 105.707 12.711C105.101 12.711 104.594 12.861 104.186 13.161C103.778 13.455 103.475 13.86 103.277 14.376C103.079 14.892 102.98 15.477 102.98 16.131C102.98 16.791 103.079 17.379 103.277 17.895C103.475 18.411 103.772 18.819 104.168 19.119C104.57 19.419 105.062 19.569 105.644 19.569ZM116.694 21.27C115.74 21.27 114.903 21.054 114.183 20.622C113.463 20.184 112.908 19.578 112.518 18.804C112.128 18.024 111.933 17.133 111.933 16.131C111.933 15.123 112.131 14.232 112.527 13.458C112.923 12.684 113.481 12.084 114.201 11.658C114.921 11.226 115.752 11.01 116.694 11.01C117.648 11.01 118.485 11.226 119.205 11.658C119.931 12.09 120.489 12.696 120.879 13.476C121.269 14.25 121.464 15.135 121.464 16.131C121.464 17.139 121.266 18.033 120.87 18.813C120.48 19.587 119.925 20.19 119.205 20.622C118.485 21.054 117.648 21.27 116.694 21.27ZM116.694 19.497C117.594 19.497 118.281 19.194 118.755 18.588C119.229 17.976 119.466 17.157 119.466 16.131C119.466 15.093 119.229 14.277 118.755 13.683C118.281 13.083 117.594 12.783 116.694 12.783C115.782 12.783 115.092 13.083 114.624 13.683C114.162 14.283 113.931 15.099 113.931 16.131C113.931 17.175 114.168 17.997 114.642 18.597C115.116 19.197 115.8 19.497 116.694 19.497Z" fill="white"/>
<path fill-rule="evenodd" clip-rule="evenodd" d="M13.8056 13.5463L14.8446 9.69866C14.8461 9.67017 14.8505 9.64191 14.8578 9.61434L15.9257 5.66027C15.9542 5.55538 16.0234 5.46599 16.1183 5.41179C16.2132 5.35759 16.3259 5.34302 16.4316 5.37129L21.2142 6.64265C21.4343 6.701 21.5651 6.92529 21.5063 7.14366L20.4384 11.0977C20.4102 11.2028 20.341 11.2924 20.2461 11.3467C20.1512 11.4011 20.0383 11.4158 19.9325 11.3875L15.9555 10.3298L15.0708 13.6061C19.3622 14.1194 22.6881 17.7443 22.6881 22.1397C22.6881 22.3657 22.5034 22.549 22.2755 22.549H5.76978C5.54189 22.549 5.35714 22.3657 5.35714 22.1397C5.35714 17.4652 9.12044 13.6609 13.8056 13.5463ZM16.9111 20.093C17.8227 20.093 18.5617 19.36 18.5617 18.4557C18.5617 17.5515 17.8227 16.8184 16.9111 16.8184C15.9996 16.8184 15.2606 17.5515 15.2606 18.4557C15.2606 19.36 15.9996 20.093 16.9111 20.093ZM10.3089 20.5024C10.3089 21.1805 9.75461 21.7303 9.07092 21.7303C8.38724 21.7303 7.833 21.1805 7.833 20.5024C7.833 19.8242 8.38724 19.2744 9.07092 19.2744C9.75461 19.2744 10.3089 19.8242 10.3089 20.5024ZM12.1428 17.0004C12.5986 17.0004 12.9681 16.6338 12.9681 16.1817C12.9681 15.7296 12.5986 15.3631 12.1428 15.3631C11.687 15.3631 11.3175 15.7296 11.3175 16.1817C11.3175 16.6338 11.687 17.0004 12.1428 17.0004ZM22.9654 9.65036L21.7696 9.33272V9.3319L21.2356 11.3089C21.1509 11.6239 20.9434 11.8925 20.6589 12.0556C20.3744 12.2186 20.0361 12.2628 19.7188 12.1783L16.9293 11.4358L16.6091 12.6229C16.5503 12.841 16.6806 13.0652 16.9004 13.1239L21.6838 14.3952C21.9037 14.4536 22.1297 14.3243 22.1888 14.1063L23.2568 10.1522C23.2853 10.0473 23.2706 9.93551 23.2159 9.84139C23.1613 9.74727 23.0712 9.67855 22.9654 9.65036Z" fill="white"/>
</svg>
